<svg id="Warstwa_1" data-name="Warstwa 1" xmlns="http://www.w3.org/2000/svg" viewBox="0 0 1920 1080"><defs><style>.cls-1,.cls-2{fill:#46bda1;}.cls-1{opacity:0.5;}.cls-2{opacity:0.2;}</style></defs><title>Obszar roboczy 2</title><circle class="cls-1" cx="1636" cy="792" r="66"/><circle class="cls-1" cx="468" cy="274" r="66"/><circle class="cls-1" cx="382" cy="896" r="38"/><circle class="cls-1" cx="1608" cy="208" r="38"/><circle class="cls-1" cx="1192" cy="576" r="38"/><circle class="cls-1" cx="826" cy="190" r="38"/><circle class="cls-1" cx="938" cy="986" r="38"/><circle class="cls-1" cx="156" cy="516" r="38"/><circle class="cls-1" cx="800" cy="614" r="38"/><circle class="cls-1" cx="1852" cy="478" r="38"/><circle class="cls-1" cx="1268" cy="208" r="38"/><circle class="cls-1" cx="232" cy="104" r="38"/><circle class="cls-1" cx="1306" cy="948" r="38"/><polygon class="cls-2" points="156 516 382 896 812 606 156 516"/><path class="cls-2" d="M1268,208c-10,6-76,368-76,368l436,216s-2-576-8-584S1268,208,1268,208Z"/></svg>