<?xml version="1.0" encoding="utf-8"?>
<!-- Generator: Adobe Illustrator 21.0.1, SVG Export Plug-In . SVG Version: 6.00 Build 0)  -->
<svg version="1.1" id="Layer_1" xmlns="http://www.w3.org/2000/svg" xmlns:xlink="http://www.w3.org/1999/xlink" x="0px" y="0px"
	 viewBox="0 0 192.7 33.5" style="enable-background:new 0 0 192.7 33.5;" xml:space="preserve">
<style type="text/css">
	.st0{fill:none;}
</style>
<title>logo_home</title>
<path d="M64.7,17.9c0,6.1-4.9,10.8-11.3,10.8S42.1,24,42.1,17.9S47.1,7.1,53.4,7.1S64.7,11.8,64.7,17.9z M45.8,17.9
	c0,4.2,3.4,7.6,7.7,7.6c4.2-0.1,7.5-3.5,7.4-7.7c-0.1-4.2-3.5-7.5-7.7-7.4C49.1,10.4,45.8,13.8,45.8,17.9L45.8,17.9z"/>
<path d="M77.3,7.2c6.4,0,11,4.5,11,10.6s-4.7,10.6-11.1,10.6h-8.6V7.2H77.3z M72.1,25.3h5.2c3.9,0.1,7.2-3,7.3-7c0-0.1,0-0.3,0-0.4
	c0.1-4-3-7.3-7.1-7.5c-0.1,0-0.3,0-0.4,0h-5.1L72.1,25.3z"/>
<path d="M95.7,10.5v5.8h10.4v3.2H95.7v5.9h12v3.2H92.1V7.2h15.2v3.2H95.7z"/>
<path d="M121.7,22.1c-0.3,0-0.6,0-1,0h-5.1v6.4h-3.6V7.2h8.6c5.4,0,8.6,2.6,8.6,7.3c0,3.4-1.6,5.8-4.4,6.9l4.8,7.1h-4.1L121.7,22.1z
	 M120.7,18.9c3.3,0,5.2-1.4,5.2-4.3s-1.9-4.1-5.2-4.1h-5.1v8.4L120.7,18.9z"/>
<path d="M141.9,10.5v18.1h-3.6V10.5h-6.7V7.2h17.1v3.2H141.9z"/>
<path d="M171.3,17.9c0,6.1-4.9,10.8-11.3,10.8s-11.3-4.7-11.3-10.8S153.6,7.1,160,7.1S171.3,11.8,171.3,17.9z M152.4,17.9
	c0,4.2,3.5,7.6,7.7,7.6c4.2-0.1,7.5-3.5,7.4-7.7c-0.1-4.2-3.5-7.5-7.7-7.4C155.7,10.4,152.4,13.8,152.4,17.9z"/>
<path d="M184.7,22.1c-0.3,0-0.6,0-1,0h-5.1v6.4h-3.6V7.2h8.6c5.4,0,8.6,2.6,8.6,7.3c0,3.4-1.6,5.8-4.4,6.9l4.8,7.1h-4.1L184.7,22.1z
	 M183.7,18.9c3.3,0,5.2-1.4,5.2-4.3s-1.9-4.1-5.2-4.1h-5.1v8.4L183.7,18.9z"/>
<path d="M16.8,0C7.5,0,0,7.4,0,16.6h4.2c0.2-6.9,6-12.4,12.9-12.2c6.7,0.2,12,5.5,12.2,12.2h4.2C33.5,7.4,26,0,16.8,0z"/>
<path d="M6.1,29.7c1.5,1.2,3.1,2.2,4.9,2.8c5.6,2,11.8,1,16.4-2.8H6.1z"/>
<path d="M31.3,25.2c-0.6,1-1.3,2-2.2,2.9H4.4c-0.8-0.9-1.5-1.9-2.2-2.9H31.3z"/>
<path d="M33,21C33,21,33,21,33,21c-0.2,1-0.5,1.9-0.9,2.7H1.4c-0.4-0.9-0.7-1.8-1-2.7c0,0,0,0,0-0.1H33z"/>
<line class="st0" x1="27.4" y1="29.7" x2="6.1" y2="29.7"/>
</svg>
